<svg width="33" height="33" viewBox="0 0 33 33" fill="none" xmlns="http://www.w3.org/2000/svg">
<path d="M16.5 2.75C8.91 2.75 2.75 8.91 2.75 16.5C2.75 24.09 8.91 30.25 16.5 30.25C24.09 30.25 30.25 24.09 30.25 16.5C30.25 8.91 24.09 2.75 16.5 2.75ZM9.72125 25.135C10.3125 23.8975 13.915 22.6875 16.5 22.6875C19.085 22.6875 22.7013 23.8975 23.2788 25.135C21.4088 26.62 19.0575 27.5 16.5 27.5C13.9425 27.5 11.5913 26.62 9.72125 25.135ZM25.245 23.1413C23.2788 20.7488 18.5075 19.9375 16.5 19.9375C14.4925 19.9375 9.72125 20.7488 7.755 23.1413C6.29427 21.2353 5.5018 18.9013 5.5 16.5C5.5 10.4363 10.4363 5.5 16.5 5.5C22.5637 5.5 27.5 10.4363 27.5 16.5C27.5 19.0025 26.6475 21.2987 25.245 23.1413ZM16.5 8.25C13.8325 8.25 11.6875 10.395 11.6875 13.0625C11.6875 15.73 13.8325 17.875 16.5 17.875C19.1675 17.875 21.3125 15.73 21.3125 13.0625C21.3125 10.395 19.1675 8.25 16.5 8.25ZM16.5 15.125C15.3588 15.125 14.4375 14.2037 14.4375 13.0625C14.4375 11.9213 15.3588 11 16.5 11C17.6412 11 18.5625 11.9213 18.5625 13.0625C18.5625 14.2037 17.6412 15.125 16.5 15.125Z" fill="white"/>
</svg>
