<svg width="1520" height="362" viewBox="0 0 1520 362" fill="none" xmlns="http://www.w3.org/2000/svg">
<path fill-rule="evenodd" clip-rule="evenodd" d="M0 270.606L51.1072 263.63C101.333 255.782 202.667 240.959 304 210.439C405.333 180.792 506.667 135.449 608 120.625C709.333 104.93 810.667 120.625 912 135.449C1013.33 150.273 1114.67 165.968 1216 143.297C1317.33 120.625 1418.67 60.4587 1469.77 29.9393L1520 0.291992V361.292H1469.77C1418.67 361.292 1317.33 361.292 1216 361.292C1114.67 361.292 1013.33 361.292 912 361.292C810.667 361.292 709.333 361.292 608 361.292C506.667 361.292 405.333 361.292 304 361.292C202.667 361.292 101.333 361.292 51.1072 361.292H0V270.606Z" fill="#E5E5E5"/>
</svg>
